<svg width="80.000000" height="80.000000" viewBox="0 0 150 150" fill="none" xmlns="http://www.w3.org/2000/svg" xmlns:xlink="http://www.w3.org/1999/xlink">
	<desc>
			Created with Pixso.
	</desc>
	<defs/>
	<rect rx="75.000000" width="150.000000" height="150.000000" fill="#FFFFFF" fill-opacity="1.000000"/>
	<path d="M114.809 98.5894C112.053 103.345 107.542 106.849 102.28 108.351C103.031 105.723 103.407 103.095 103.407 100.341C103.407 86.9507 94.1357 75.6875 81.7314 72.5591C84.3623 70.0562 87.4951 68.1792 91.0029 67.3027C96.3906 65.8013 102.28 66.5522 107.041 69.4302C117.189 75.4375 120.698 88.4526 114.809 98.5894ZM74.9653 121.742C69.4526 121.742 64.1899 119.489 60.3062 115.734C62.937 115.109 65.4429 114.107 67.6982 112.731C79.2256 105.973 84.3623 92.332 80.729 79.9429C89.625 82.4458 96.1401 90.7051 96.1401 100.341C96.1401 112.23 86.6177 121.742 74.9653 121.742ZM35.1221 98.5894C32.3652 93.834 31.6138 88.0771 32.9917 82.8213C34.8711 84.6982 37.0015 86.4502 39.2563 87.8271C43.5166 90.3296 48.4028 91.7065 53.415 91.7065C61.1831 91.7065 68.5757 88.5776 73.9629 82.9463C76.2183 91.9565 72.3345 101.718 64.0649 106.474C60.8071 108.351 57.1738 109.352 53.54 109.352C45.897 109.227 38.8809 105.222 35.1221 98.5894ZM35.1221 52.4106C37.8784 47.6548 42.3892 44.1509 47.6514 42.6489C46.8994 45.2773 46.5234 47.9053 46.5234 50.6587C46.5234 64.0493 55.7954 75.3125 68.1997 78.4409C61.5591 84.8232 51.2847 86.4502 42.8901 81.5698C38.0034 78.6914 34.4956 74.186 32.9917 68.6797C31.4883 63.1729 32.2402 57.291 35.1221 52.4106ZM74.9653 29.2583C80.4785 29.2583 85.7407 31.5112 89.625 35.2656C86.9937 35.8911 84.4878 36.8926 82.2324 38.269C75.5918 42.1484 70.9561 48.2808 68.9512 55.6646C67.5732 60.6699 67.6982 66.0513 69.0767 71.0571C60.1807 68.5542 53.6655 60.2949 53.6655 50.6587C53.7905 38.8945 63.313 29.2583 74.9653 29.2583ZM114.809 52.4106C117.565 57.291 118.317 62.9229 116.939 68.1787C115.06 66.1768 112.93 64.5498 110.674 63.1729C104.034 59.2935 96.3906 58.2925 88.9985 60.2949C83.9868 61.6714 79.3506 64.4243 75.8428 68.1787C74.9653 64.6748 74.9653 61.0454 75.9678 57.5415C77.4712 52.0352 80.9795 47.4048 85.8662 44.6514C90.7524 41.7729 96.5161 41.022 101.904 42.5239C107.417 44.0259 111.927 47.5298 114.809 52.4106ZM121.199 48.7812C117.44 42.1484 111.301 37.3931 103.909 35.3906C102.154 34.8901 100.4 34.6396 98.646 34.5146C93.3838 26.7554 84.4878 22 75.0908 22C65.3179 22 56.6724 27.0059 51.5356 34.5146C42.1382 35.2656 33.6182 40.5215 28.8569 48.7812C25.0981 55.4141 24.0962 63.0479 25.9756 70.4316C26.4766 72.1836 27.103 73.8105 27.855 75.4375C23.7202 83.9473 24.0962 93.959 28.8569 102.219C33.7437 110.729 42.3892 115.734 51.4102 116.485C56.6724 124.245 65.5684 129 74.9653 129C84.7383 129 93.3838 123.994 98.521 116.485C107.918 115.734 116.438 110.479 121.199 102.219C126.085 93.709 126.085 83.6973 122.202 75.4375C126.211 67.0527 125.835 56.916 121.199 48.7812Z" fill="#0092FF" fill-opacity="1.000000" fill-rule="evenodd"/>
	<path d="M75 28L118 109L32 109L75 28Z" fill="#0A0A0A" fill-opacity="1.000000" fill-rule="evenodd"/>
	<path d="M77.6045 66.3623C79.146 69.3804 80.6782 72.4023 82.2095 75.4253C82.6396 76.2671 83.0698 77.1094 83.5132 77.9771C91 92.7964 91 92.7964 91 97.0781C79.3638 97.0781 78.8657 85.5845 76.1162 75.6484C74.354 75.4272 74.354 75.4272 73.8198 77.6045C72.6182 80.5098 71.4141 83.4141 70.2095 86.3188C69.7896 87.335 69.3701 88.3511 68.9375 89.3979C68.5371 90.3623 68.1367 91.3267 67.7236 92.3208C67.3535 93.2148 66.9834 94.1089 66.6021 95.0298C64.7935 99.1265 65.064 97.7925 59 97.7925C59.3994 94.0132 60.3687 91.0562 62.0176 87.6104C62.4751 86.647 62.9326 85.6831 63.4043 84.6904C63.8848 83.6953 64.3652 82.7007 64.8604 81.6758C65.3354 80.6777 65.8101 79.6802 66.2993 78.6523C72.6221 65.4058 72.6221 65.4058 77.6045 66.3623Z" fill="#E7FBF9" fill-opacity="1.000000" fill-rule="nonzero"/>
	<path d="M74.6577 74C78.1045 76.2603 78.5146 78.6943 77.5435 82.5161C77.3057 81.5796 77.0674 80.6426 76.8223 79.6772C73.6226 79.2256 73.6226 79.2256 73.1245 82.25C71.54 86.9561 69.4692 91.4653 67.4429 96C66.9668 95.7656 66.4907 95.5317 66 95.2905C67.3066 92.0078 68.6147 88.7256 69.9229 85.4434C70.2954 84.5078 70.668 83.5718 71.0518 82.6074C71.4072 81.7158 71.7632 80.8237 72.1299 79.9048C72.4585 79.0796 72.7871 78.2544 73.126 77.4048C73.936 75.4194 73.936 75.4194 74.6577 74Z" fill="#68DDCF" fill-opacity="1.000000" fill-rule="nonzero"/>
	<path d="M75 73C79.186 74.0161 80.0732 75.9507 80.0732 80.0371C80.5518 80.0371 81.0303 80.0371 81.5229 80.0371C82.5835 84.1567 83.1328 87.7192 82.9727 92C79.7393 87.291 78.2026 82.4146 76.9648 76.9419C76.5156 74.9663 76.5156 74.9663 75 73Z" fill="#C0F7EA" fill-opacity="1.000000" fill-rule="nonzero"/>
</svg>
